<svg width="53" height="53" viewBox="0 0 53 53" fill="none" xmlns="http://www.w3.org/2000/svg">
<g clip-path="url(#clip0_43_26)">
<path d="M27.6042 26.3895C28.6715 25.2117 29.4908 23.8683 30.062 22.3593C30.6333 20.8503 30.9181 19.286 30.9167 17.6666C30.9152 16.0471 30.6303 14.4829 30.062 12.9739C29.4938 11.4648 28.6745 10.1214 27.6042 8.94367C29.8125 9.23811 31.6528 10.2135 33.125 11.8697C34.5972 13.526 35.3333 15.4583 35.3333 17.6666C35.3333 19.8749 34.5972 21.8072 33.125 23.4635C31.6528 25.1197 29.8125 26.0951 27.6042 26.3895ZM38.5354 44.1666C38.9403 43.5041 39.2443 42.7959 39.4475 42.0422C39.6506 41.2884 39.7515 40.5243 39.75 39.7499V37.5416C39.75 36.2166 39.4556 34.9556 38.8667 33.7587C38.2778 32.5618 37.5049 31.504 36.5479 30.5853C38.425 31.2478 40.1644 32.1039 41.7662 33.1536C43.368 34.2033 44.1681 35.666 44.1667 37.5416V39.7499C44.1667 40.9645 43.7346 42.0046 42.8704 42.8703C42.0062 43.736 40.9661 44.1681 39.75 44.1666H38.5354ZM44.1667 24.2916H41.9583C41.3326 24.2916 40.8085 24.0796 40.386 23.6556C39.9635 23.2316 39.7515 22.7075 39.75 22.0833C39.7485 21.459 39.9605 20.9349 40.386 20.5109C40.8115 20.0869 41.3356 19.8749 41.9583 19.8749H44.1667V17.6666C44.1667 17.0409 44.3787 16.5168 44.8027 16.0943C45.2267 15.6717 45.7508 15.4597 46.375 15.4583C46.9992 15.4568 47.5241 15.6688 47.9495 16.0943C48.375 16.5197 48.5863 17.0438 48.5833 17.6666V19.8749H50.7917C51.4174 19.8749 51.9422 20.0869 52.3662 20.5109C52.7902 20.9349 53.0015 21.459 53 22.0833C52.9985 22.7075 52.7865 23.2323 52.364 23.6578C51.9415 24.0833 51.4174 24.2945 50.7917 24.2916H48.5833V26.4999C48.5833 27.1256 48.3713 27.6505 47.9473 28.0745C47.5233 28.4985 46.9992 28.7097 46.375 28.7083C45.7508 28.7068 45.2267 28.4948 44.8027 28.0723C44.3787 27.6497 44.1667 27.1256 44.1667 26.4999V24.2916ZM17.6667 26.4999C15.2375 26.4999 13.158 25.635 11.4281 23.9051C9.69826 22.1753 8.83333 20.0958 8.83333 17.6666C8.83333 15.2374 9.69826 13.1579 11.4281 11.428C13.158 9.69818 15.2375 8.83325 17.6667 8.83325C20.0958 8.83325 22.1753 9.69818 23.9052 11.428C25.6351 13.1579 26.5 15.2374 26.5 17.6666C26.5 20.0958 25.6351 22.1753 23.9052 23.9051C22.1753 25.635 20.0958 26.4999 17.6667 26.4999ZM0 39.7499V37.9833C0 36.7319 0.322417 35.5821 0.96725 34.5338C1.61208 33.4856 2.46744 32.6847 3.53333 32.1312C5.81528 30.9902 8.13403 30.1348 10.4896 29.5651C12.8451 28.9953 15.2375 28.7097 17.6667 28.7083C20.0958 28.7068 22.4882 28.9924 24.8437 29.5651C27.1993 30.1378 29.5181 30.9931 31.8 32.1312C32.8674 32.6833 33.7235 33.4841 34.3683 34.5338C35.0131 35.5835 35.3348 36.7333 35.3333 37.9833V39.7499C35.3333 40.9645 34.9012 42.0046 34.037 42.8703C33.1728 43.736 32.1327 44.1681 30.9167 44.1666H4.41667C3.20208 44.1666 2.16269 43.7345 1.2985 42.8703C0.434306 42.0061 0.00147222 40.966 0 39.7499Z" fill="black"/>
</g>
<defs>
<clipPath id="clip0_43_26">
<rect width="53" height="53" fill="white"/>
</clipPath>
</defs>
</svg>
