<svg width="53" height="53" viewBox="0 0 53 53" fill="none" xmlns="http://www.w3.org/2000/svg">
<path fill-rule="evenodd" clip-rule="evenodd" d="M41.9285 30.8891C43.3946 28.5882 44.1712 25.9157 44.1667 23.1875C44.1667 15.2596 37.7404 8.83335 29.8125 8.83335C26.9781 8.83335 24.3358 9.65485 22.1109 11.0715C20.6303 11.155 19.1648 11.4137 17.7451 11.8422C19.2922 10.1928 21.1616 8.87876 23.2374 7.98133C25.3131 7.08391 27.5511 6.62227 29.8125 6.62501C38.9594 6.62501 46.375 14.0406 46.375 23.1875C46.3777 25.449 45.9161 27.6869 45.0187 29.7626C44.1212 31.8384 42.8072 33.7078 41.1578 35.255C41.5785 33.8604 41.8435 32.3985 41.9285 30.8891Z" fill="black"/>
<path fill-rule="evenodd" clip-rule="evenodd" d="M44.0927 31.5825C43.294 32.94 42.3057 34.1766 41.1578 35.255C41.5785 33.8604 41.8424 32.3985 41.9274 30.8891C43.3938 28.5883 44.1709 25.9158 44.1667 23.1875C44.1667 15.2596 37.7404 8.83335 29.8125 8.83335C26.9781 8.83335 24.3358 9.65485 22.1109 11.0715C20.6303 11.155 19.1648 11.4137 17.7451 11.8422C18.8234 10.6943 20.06 9.70603 21.4175 8.90733C23.961 7.40859 26.8603 6.62037 29.8125 6.62502C38.9594 6.62502 46.375 14.0406 46.375 23.1875C46.375 23.3539 46.3724 23.5199 46.3673 23.6855C46.2893 26.4679 45.5067 29.185 44.0927 31.5825Z" fill="black"/>
<path fill-rule="evenodd" clip-rule="evenodd" d="M39.75 29.8125C39.75 38.9594 32.3344 46.375 23.1875 46.375C14.0406 46.375 6.625 38.9594 6.625 29.8125C6.625 20.6656 14.0406 13.25 23.1875 13.25C32.3344 13.25 39.75 20.6656 39.75 29.8125ZM22.0833 24.2917C21.4976 24.2917 20.9359 24.5243 20.5218 24.9385C20.1077 25.3526 19.875 25.9143 19.875 26.5C19.875 27.0857 20.1077 27.6474 20.5218 28.0615C20.9359 28.4757 21.4976 28.7083 22.0833 28.7083V24.2917ZM24.2917 22.0833V20.9792H22.0833V22.0833C20.912 22.0833 19.7886 22.5487 18.9603 23.3769C18.132 24.2052 17.6667 25.3286 17.6667 26.5C17.6667 27.6714 18.132 28.7948 18.9603 29.6231C19.7886 30.4513 20.912 30.9167 22.0833 30.9167V35.3333C21.1227 35.3333 20.3045 34.7205 19.9998 33.8615C19.9546 33.7209 19.8816 33.5909 19.7853 33.479C19.6889 33.3672 19.5711 33.2758 19.4388 33.2102C19.3065 33.1447 19.1624 33.1063 19.0151 33.0975C18.8677 33.0886 18.72 33.1094 18.5808 33.1585C18.4416 33.2077 18.3137 33.2843 18.2046 33.3838C18.0955 33.4833 18.0075 33.6036 17.9457 33.7377C17.884 33.8718 17.8497 34.017 17.845 34.1645C17.8404 34.3121 17.8653 34.4591 17.9184 34.5969C18.2229 35.4582 18.7869 36.2039 19.5328 36.7313C20.2787 37.2587 21.1698 37.5418 22.0833 37.5417V38.6458H24.2917V37.5417C25.463 37.5417 26.5864 37.0763 27.4147 36.2481C28.243 35.4198 28.7083 34.2964 28.7083 33.125C28.7083 31.9536 28.243 30.8302 27.4147 30.0019C26.5864 29.1737 25.463 28.7083 24.2917 28.7083V24.2917C25.2523 24.2917 26.0705 24.9045 26.3752 25.7635C26.4204 25.9041 26.4934 26.0341 26.5897 26.146C26.6861 26.2578 26.8039 26.3492 26.9362 26.4148C27.0685 26.4803 27.2126 26.5187 27.3599 26.5275C27.5073 26.5364 27.655 26.5156 27.7942 26.4665C27.9334 26.4173 28.0613 26.3407 28.1704 26.2412C28.2795 26.1417 28.3675 26.0214 28.4293 25.8873C28.491 25.7532 28.5253 25.608 28.5299 25.4605C28.5346 25.3129 28.5097 25.1659 28.4566 25.0281C28.1521 24.1668 27.5881 23.4211 26.8422 22.8937C26.0963 22.3663 25.2052 22.0832 24.2917 22.0833ZM24.2917 30.9167V35.3333C24.8774 35.3333 25.4391 35.1007 25.8532 34.6865C26.2673 34.2724 26.5 33.7107 26.5 33.125C26.5 32.5393 26.2673 31.9776 25.8532 31.5635C25.4391 31.1493 24.8774 30.9167 24.2917 30.9167Z" fill="black"/>
</svg>
